<!-- This is a simple SVG icon with the red theme color -->
<svg xmlns="http://www.w3.org/2000/svg" width="512" height="512" viewBox="0 0 512 512">
  <rect width="512" height="512" fill="#0a0a14" rx="128" ry="128"/>
  <path d="M256 128c-70.7 0-128 57.3-128 128 0 54.8 34.3 101.5 82.5 120.3L256 480l45.5-103.7c48.2-18.8 82.5-65.5 82.5-120.3 0-70.7-57.3-128-128-128z" fill="#e11d48"/>
  <path d="M256 160c-53 0-96 43-96 96s43 96 96 96 96-43 96-96-43-96-96-96zm0 160c-35.3 0-64-28.7-64-64s28.7-64 64-64 64 28.7 64 64-28.7 64-64 64z" fill="#f43f5e"/>
</svg>
